{
  "version": "1.1.6",
  "modules": [
    {
      "id": 131,
      "plugin": "Core",
      "version": "1.1.6",
      "model": "AudioInterface",
      "params": [],
      "leftModuleId": 146,
      "rightModuleId": 149,
      "data": {
        "audio": {
          "driver": 7,
          "deviceName": "ASIO Link Pro",
          "offset": 0,
          "maxChannels": 8,
          "sampleRate": 44100,
          "blockSize": 256
        }
      },
      "pos": [
        41,
        0
      ]
    },
    {
      "id": 137,
      "plugin": "JW-Modules",
      "version": "1.0.9",
      "model": "NoteSeq16",
      "params": [
        {
          "id": 0,
          "value": 16.0
        },
        {
          "id": 1,
          "value": 0.0
        },
        {
          "id": 2,
          "value": 0.0
        },
        {
          "id": 3,
          "value": 0.0
        },
        {
          "id": 4,
          "value": 0.100000001
        },
        {
          "id": 5,
          "value": 11.0
        },
        {
          "id": 6,
          "value": 0.0
        },
        {
          "id": 7,
          "value": -1.0
        },
        {
          "id": 8,
          "value": 0.0
        },
        {
          "id": 9,
          "value": 0.0
        }
      ],
      "leftModuleId": 150,
      "rightModuleId": 151,
      "data": {
        "channels": 1,
        "cells": [
          1,
          0,
          0,
          0,
          0,
          0,
          0,
          0,
          0,
          0,
          0,
          0,
          0,
          0,
          0,
          0,
          1,
          0,
          0,
          0,
          0,
          0,
          0,
          0,
          0,
          0,
          0,
          0,
          0,
          0,
          0,
          0,
          0,
          0,
          0,
          0,
          0,
          0,
          0,
          0,
          1,
          0,
          0,
          0,
          0,
          0,
          0,
          0,
          0,
          0,
          0,
          0,
          0,
          0,
          0,
          0,
          0,
          0,
          0,
          0,
          0,
          0,
          1,
          0,
          1,
          0,
          0,
          1,
          0,
          0,
          0,
          0,
          0,
          0,
          0,
          0,
          0,
          0,
          0,
          0,
          0,
          0,
          0,
          0,
          1,
          0,
          0,
          0,
          0,
          0,
          0,
          0,
          0,
          0,
          0,
          0,
          0,
          0,
          0,
          0,
          0,
          1,
          0,
          0,
          0,
          1,
          0,
          0,
          0,
          0,
          0,
          0,
          0,
          0,
          0,
          0,
          0,
          0,
          0,
          0,
          0,
          0,
          1,
          0,
          0,
          0,
          1,
          0,
          0,
          0,
          0,
          0,
          0,
          0,
          0,
          0,
          0,
          0,
          0,
          0,
          0,
          1,
          1,
          1,
          0,
          0,
          0,
          0,
          0,
          1,
          0,
          0,
          0,
          0,
          0,
          0,
          0,
          1,
          0,
          0,
          0,
          1,
          0,
          0,
          0,
          0,
          0,
          0,
          0,
          0,
          0,
          0,
          0,
          0,
          0,
          0,
          0,
          0,
          0,
          0,
          0,
          0,
          0,
          0,
          1,
          0,
          0,
          0,
          1,
          0,
          0,
          1,
          0,
          1,
          0,
          0,
          0,
          0,
          0,
          0,
          0,
          0,
          0,
          0,
          0,
          1,
          0,
          0,
          0,
          0,
          0,
          0,
          0,
          0,
          0,
          0,
          0,
          0,
          0,
          0,
          0,
          0,
          0,
          0,
          0,
          1,
          1,
          0,
          0,
          0,
          1,
          0,
          0,
          0,
          0,
          0,
          0,
          0,
          0,
          0,
          0,
          0,
          0,
          0,
          0,
          0,
          1,
          0,
          0,
          0,
          0,
          0,
          0,
          0,
          0,
          0
        ]
      },
      "pos": [
        6,
        0
      ]
    },
    {
      "id": 138,
      "plugin": "JW-Modules",
      "version": "1.0.9",
      "model": "SimpleClock",
      "params": [
        {
          "id": 0,
          "value": 2.47599745
        },
        {
          "id": 1,
          "value": 0.0
        },
        {
          "id": 2,
          "value": -2.0
        },
        {
          "id": 3,
          "value": 0.0
        }
      ],
      "rightModuleId": 150,
      "data": {
        "running": true
      },
      "pos": [
        0,
        0
      ]
    },
    {
      "id": 142,
      "plugin": "MockbaModular",
      "version": "1.1.6",
      "model": "Mixah3",
      "params": [
        {
          "id": 0,
          "value": 1.0
        },
        {
          "id": 1,
          "value": 1.0
        },
        {
          "id": 2,
          "value": 1.0
        }
      ],
      "leftModuleId": 153,
      "rightModuleId": 143,
      "pos": [
        31,
        0
      ]
    },
    {
      "id": 143,
      "plugin": "MockbaModular",
      "version": "1.1.6",
      "model": "Shapah",
      "params": [
        {
          "id": 0,
          "value": 0.0540001281
        },
        {
          "id": 1,
          "value": 0.451000571
        },
        {
          "id": 2,
          "value": 0.673499823
        },
        {
          "id": 3,
          "value": 0.674999654
        }
      ],
      "leftModuleId": 142,
      "rightModuleId": 144,
      "pos": [
        33,
        0
      ]
    },
    {
      "id": 144,
      "plugin": "MockbaModular",
      "version": "1.1.6",
      "model": "Filtah",
      "params": [
        {
          "id": 0,
          "value": 0.0
        },
        {
          "id": 1,
          "value": 66.5498657
        },
        {
          "id": 2,
          "value": 0.313650101
        },
        {
          "id": 3,
          "value": 6.22498989
        }
      ],
      "leftModuleId": 143,
      "rightModuleId": 145,
      "pos": [
        35,
        0
      ]
    },
    {
      "id": 145,
      "plugin": "MockbaModular",
      "version": "1.1.6",
      "model": "Shapah",
      "params": [
        {
          "id": 0,
          "value": 0.0644999892
        },
        {
          "id": 1,
          "value": 0.433500081
        },
        {
          "id": 2,
          "value": 0.338999867
        },
        {
          "id": 3,
          "value": 0.960000336
        }
      ],
      "leftModuleId": 144,
      "rightModuleId": 146,
      "pos": [
        37,
        0
      ]
    },
    {
      "id": 146,
      "plugin": "MockbaModular",
      "version": "1.1.6",
      "model": "Feidah",
      "params": [
        {
          "id": 0,
          "value": 0.304499924
        }
      ],
      "leftModuleId": 145,
      "rightModuleId": 131,
      "pos": [
        39,
        0
      ]
    },
    {
      "id": 149,
      "plugin": "Fundamental",
      "version": "1.4.0",
      "model": "Scope",
      "params": [
        {
          "id": 0,
          "value": 0.0
        },
        {
          "id": 1,
          "value": 0.0
        },
        {
          "id": 2,
          "value": 0.0
        },
        {
          "id": 3,
          "value": 0.0
        },
        {
          "id": 4,
          "value": 14.0
        },
        {
          "id": 5,
          "value": 0.0
        },
        {
          "id": 6,
          "value": 0.0
        },
        {
          "id": 7,
          "value": 0.0
        }
      ],
      "leftModuleId": 131,
      "data": {
        "lissajous": 0,
        "external": 0
      },
      "pos": [
        51,
        0
      ]
    },
    {
      "id": 150,
      "plugin": "MockbaModular",
      "version": "1.1.6",
      "model": "Dividah",
      "params": [],
      "leftModuleId": 138,
      "rightModuleId": 137,
      "pos": [
        4,
        0
      ]
    },
    {
      "id": 151,
      "plugin": "MM_Oscah",
      "version": "1.0.0",
      "model": "MaugOscah",
      "params": [
        {
          "id": 0,
          "value": 2.0
        },
        {
          "id": 1,
          "value": 2.0
        },
        {
          "id": 2,
          "value": 0.829000115
        },
        {
          "id": 3,
          "value": 0.0
        },
        {
          "id": 4,
          "value": 0.0
        }
      ],
      "leftModuleId": 137,
      "rightModuleId": 152,
      "pos": [
        19,
        0
      ]
    },
    {
      "id": 152,
      "plugin": "MM_Oscah",
      "version": "1.0.0",
      "model": "MaugOscah",
      "params": [
        {
          "id": 0,
          "value": 2.0
        },
        {
          "id": 1,
          "value": 4.0
        },
        {
          "id": 2,
          "value": 1.0
        },
        {
          "id": 3,
          "value": 0.0
        },
        {
          "id": 4,
          "value": 0.0
        }
      ],
      "leftModuleId": 151,
      "rightModuleId": 153,
      "pos": [
        23,
        0
      ]
    },
    {
      "id": 153,
      "plugin": "MM_Oscah",
      "version": "1.0.0",
      "model": "MaugOscah",
      "params": [
        {
          "id": 0,
          "value": 3.0
        },
        {
          "id": 1,
          "value": 4.0
        },
        {
          "id": 2,
          "value": 0.578500032
        },
        {
          "id": 3,
          "value": 0.0
        },
        {
          "id": 4,
          "value": 0.0
        }
      ],
      "leftModuleId": 152,
      "rightModuleId": 142,
      "pos": [
        27,
        0
      ]
    }
  ],
  "cables": [
    {
      "id": 70,
      "outputModuleId": 138,
      "outputId": 0,
      "inputModuleId": 137,
      "inputId": 0,
      "color": "#c91847"
    },
    {
      "id": 74,
      "outputModuleId": 142,
      "outputId": 0,
      "inputModuleId": 144,
      "inputId": 2,
      "color": "#c9b70e"
    },
    {
      "id": 75,
      "outputModuleId": 144,
      "outputId": 0,
      "inputModuleId": 146,
      "inputId": 0,
      "color": "#0c8e15"
    },
    {
      "id": 78,
      "outputModuleId": 145,
      "outputId": 0,
      "inputModuleId": 146,
      "inputId": 1,
      "color": "#808080"
    },
    {
      "id": 92,
      "outputModuleId": 137,
      "outputId": 1,
      "inputModuleId": 143,
      "inputId": 0,
      "color": "#c91847"
    },
    {
      "id": 93,
      "outputModuleId": 137,
      "outputId": 1,
      "inputModuleId": 145,
      "inputId": 0,
      "color": "#ff9941"
    },
    {
      "id": 76,
      "outputModuleId": 146,
      "outputId": 0,
      "inputModuleId": 131,
      "inputId": 0,
      "color": "#0986ad"
    },
    {
      "id": 77,
      "outputModuleId": 146,
      "outputId": 0,
      "inputModuleId": 131,
      "inputId": 1,
      "color": "#b700b5"
    },
    {
      "id": 95,
      "outputModuleId": 144,
      "outputId": 0,
      "inputModuleId": 149,
      "inputId": 0,
      "color": "#0c8e15"
    },
    {
      "id": 102,
      "outputModuleId": 143,
      "outputId": 0,
      "inputModuleId": 144,
      "inputId": 0,
      "color": "#ff9941"
    },
    {
      "id": 103,
      "outputModuleId": 143,
      "outputId": 0,
      "inputModuleId": 144,
      "inputId": 1,
      "color": "#c9b70e"
    },
    {
      "id": 104,
      "outputModuleId": 138,
      "outputId": 0,
      "inputModuleId": 150,
      "inputId": 0,
      "color": "#b700b5"
    },
    {
      "id": 105,
      "outputModuleId": 138,
      "outputId": 1,
      "inputModuleId": 150,
      "inputId": 1,
      "color": "#808080"
    },
    {
      "id": 106,
      "outputModuleId": 138,
      "outputId": 1,
      "inputModuleId": 137,
      "inputId": 1,
      "color": "#ffffff"
    },
    {
      "id": 107,
      "outputModuleId": 150,
      "outputId": 4,
      "inputModuleId": 137,
      "inputId": 2,
      "color": "#100f12"
    },
    {
      "id": 108,
      "outputModuleId": 137,
      "outputId": 0,
      "inputModuleId": 151,
      "inputId": 1,
      "color": "#b700b5"
    },
    {
      "id": 109,
      "outputModuleId": 137,
      "outputId": 0,
      "inputModuleId": 152,
      "inputId": 1,
      "color": "#808080"
    },
    {
      "id": 110,
      "outputModuleId": 137,
      "outputId": 0,
      "inputModuleId": 153,
      "inputId": 1,
      "color": "#ffffff"
    },
    {
      "id": 111,
      "outputModuleId": 151,
      "outputId": 0,
      "inputModuleId": 142,
      "inputId": 0,
      "color": "#b700b5"
    },
    {
      "id": 112,
      "outputModuleId": 152,
      "outputId": 0,
      "inputModuleId": 142,
      "inputId": 1,
      "color": "#808080"
    },
    {
      "id": 113,
      "outputModuleId": 153,
      "outputId": 0,
      "inputModuleId": 142,
      "inputId": 2,
      "color": "#ffffff"
    }
  ]
}